<svg width="125" height="19" viewBox="0 0 125 19" fill="none" xmlns="http://www.w3.org/2000/svg">
<path d="M0 18.9603C0.18841 18.5927 0.433912 18.1342 0.633923 17.769C0.814332 17.4394 0.979941 17.1557 1.20875 16.7633L1.22635 16.7333C1.33876 16.5409 1.46517 16.3237 1.61437 16.0653C2.088 15.2444 2.38921 14.7344 2.60923 14.362C2.92364 13.8292 3.09685 13.5359 3.41207 12.9543C4.34852 11.2262 4.86854 10.3726 5.32697 9.61895C5.53578 9.27573 5.73299 8.95211 5.9474 8.58129C6.72184 7.24162 8.06002 6.40918 9.71199 6.40918H12.3077L5.05882 18.9603H0Z" fill="black"/>
<path d="M0.0224609 0.675781H15.5981L12.9367 5.31602H0.0224609V0.675781Z" fill="black"/>
<path d="M6.3291 18.9498C6.91003 17.9241 7.45422 16.9612 7.94851 16.086L7.95729 16.0701C8.54301 15.0347 9.48453 14.3914 10.8032 14.3914L15.6754 14.3779V18.9604L6.3295 18.9498H6.3291Z" fill="black"/>
<path d="M117.42 15.3328V7.05231H119.372V8.05981H119.482C119.813 7.44586 120.631 6.84766 121.812 6.84766C123.67 6.84766 124.803 8.15427 124.803 9.9174V15.3328H122.757V10.4526C122.757 9.44513 122.111 8.76822 121.167 8.76822C120.175 8.76822 119.466 9.55533 119.466 10.5943V15.3328H117.42Z" fill="black"/>
<path d="M114.626 5.95033C113.886 5.95033 113.366 5.4938 113.366 4.75391C113.366 4.04551 113.886 3.57324 114.626 3.57324C115.365 3.57324 115.885 4.04551 115.885 4.75391C115.885 5.4938 115.365 5.95033 114.626 5.95033ZM113.602 15.3327V7.05229H115.649V15.3327H113.602Z" fill="black"/>
<path d="M103.924 15.5374C101.484 15.5374 99.752 13.7113 99.752 11.2398C99.752 8.62654 101.499 6.84766 103.924 6.84766C106.584 6.84766 108.032 8.81544 108.032 11.1453V11.7907H101.735C101.798 13.0501 102.664 13.9002 103.987 13.9002C104.994 13.9002 105.765 13.4279 106.049 12.751H107.954C107.544 14.4354 106.065 15.5374 103.924 15.5374ZM101.767 10.3424H106.08C105.986 9.22474 105.12 8.48485 103.924 8.48485C102.774 8.48485 101.893 9.30345 101.767 10.3424Z" fill="black"/>
<path d="M90.2549 18.9535V7.05231H92.2699V8.10704H92.3801C92.6005 7.76071 93.3561 6.84766 94.8674 6.84766C97.1815 6.84766 98.7714 8.57931 98.7714 11.161C98.7714 13.7428 97.1972 15.5374 94.9303 15.5374C93.4663 15.5374 92.6792 14.7188 92.4116 14.2623H92.3014V18.9535H90.2549ZM94.4738 13.6798C95.7962 13.6798 96.6935 12.6566 96.6935 11.1925C96.6935 9.68127 95.7962 8.70525 94.4581 8.70525C93.1042 8.70525 92.2542 9.79146 92.2542 11.1925C92.2542 12.7353 93.1987 13.6798 94.4738 13.6798Z" fill="black"/>
<path d="M80.2412 18.9535V7.05231H82.2562V8.10704H82.3664C82.5868 7.76071 83.3424 6.84766 84.8537 6.84766C87.1678 6.84766 88.7578 8.57931 88.7578 11.161C88.7578 13.7428 87.1835 15.5374 84.9167 15.5374C83.4526 15.5374 82.6655 14.7188 82.3979 14.2623H82.2877V18.9535H80.2412ZM84.4601 13.6798C85.7825 13.6798 86.6798 12.6566 86.6798 11.1925C86.6798 9.68127 85.7825 8.70525 84.4444 8.70525C83.0906 8.70525 82.2405 9.79146 82.2405 11.1925C82.2405 12.7353 83.185 13.6798 84.4601 13.6798Z" fill="black"/>
<path d="M74.6317 15.5374C72.1916 15.5374 70.46 13.7113 70.46 11.2398C70.46 8.62654 72.2074 6.84766 74.6317 6.84766C77.2921 6.84766 78.7404 8.81544 78.7404 11.1453V11.7907H72.4435C72.5065 13.0501 73.3723 13.9002 74.6946 13.9002C75.7021 13.9002 76.4735 13.4279 76.7569 12.751H78.6617C78.2524 14.4354 76.7726 15.5374 74.6317 15.5374ZM72.475 10.3424H76.7883C76.6939 9.22474 75.8281 8.48485 74.6317 8.48485C73.4825 8.48485 72.6009 9.30345 72.475 10.3424Z" fill="black"/>
<path d="M61.4268 15.3331V13.4597L67.1569 6.23404V6.12384H61.6314V4.31348H69.7702V6.17107L64.04 13.3968V13.5227H69.8016V15.3331H61.4268Z" fill="black"/>
<path d="M52.7295 15.3328V7.05231H54.6815V8.05981H54.7917C55.1223 7.44586 55.9409 6.84766 57.1216 6.84766C58.9792 6.84766 60.1126 8.15427 60.1126 9.9174V15.3328H58.0661V10.4526C58.0661 9.44513 57.4207 8.76822 56.4762 8.76822C55.4844 8.76822 54.776 9.55533 54.776 10.5943V15.3328H52.7295Z" fill="black"/>
<path d="M47.116 15.5374C44.676 15.5374 42.9443 13.7113 42.9443 11.2398C42.9443 8.62654 44.6917 6.84766 47.116 6.84766C49.7765 6.84766 51.2248 8.81544 51.2248 11.1453V11.7907H44.9279C44.9908 13.0501 45.8567 13.9002 47.179 13.9002C48.1865 13.9002 48.9579 13.4279 49.2412 12.751H51.1461C50.7368 14.4354 49.257 15.5374 47.116 15.5374ZM44.9593 10.3424H49.2727C49.1783 9.22474 48.3124 8.48485 47.116 8.48485C45.9668 8.48485 45.0853 9.30345 44.9593 10.3424Z" fill="black"/>
<path d="M33.4512 18.9535V7.05231H35.4662V8.10704H35.5764C35.7968 7.76071 36.5524 6.84766 38.0637 6.84766C40.3778 6.84766 41.9677 8.57931 41.9677 11.161C41.9677 13.7428 40.3935 15.5374 38.1266 15.5374C36.6626 15.5374 35.8755 14.7188 35.6079 14.2623H35.4977V18.9535H33.4512ZM37.6701 13.6798C38.9924 13.6798 39.8898 12.6566 39.8898 11.1925C39.8898 9.68127 38.9924 8.70525 37.6544 8.70525C36.3005 8.70525 35.4504 9.79146 35.4504 11.1925C35.4504 12.7353 36.395 13.6798 37.6701 13.6798Z" fill="black"/>
<path d="M26.0949 15.5373C22.7576 15.5373 20.3018 13.0972 20.3018 9.82285C20.3018 6.57994 22.7733 4.1084 26.1107 4.1084C29.448 4.1084 31.9195 6.61142 31.9195 9.82285C31.9195 13.0658 29.4323 15.5373 26.0949 15.5373ZM26.1107 13.538C28.2201 13.538 29.7314 11.9638 29.7314 9.82285C29.7314 7.71338 28.2201 6.10767 26.1107 6.10767C23.9854 6.10767 22.4742 7.71338 22.4742 9.82285C22.4742 11.9638 23.9854 13.538 26.1107 13.538Z" fill="black"/>
<rect x="109.735" y="3.56348" width="1.98542" height="11.7689" fill="black"/>
</svg>
